<?xml version="1.0" encoding="UTF-8"?>
<svg enable-background="new 0 0 150 150" version="1.1" viewBox="0 0 150 150" xmlns="http://www.w3.org/2000/svg">
 <g fill="#0091D2">
  <path d="m82.544 88.203h7.544v-15.089h-7.544v15.089z"/>
  <path d="m139.13 20.304h-49.038c-3.772 0-7.544 3.772-7.544 7.544v7.544c3.772 3.772 5.658 5.355 7.544 7.544v-11.316h49.038v82.987h-49.038v-7.544c-2.277 1.436-4.825 3.067-7.544 3.772v11.316c0 3.772 3.772 7.544 7.544 7.544h49.038c3.772 0 7.544-3.772 7.544-7.544v-94.303c0-3.772-3.772-7.544-7.544-7.544zm-15.089 7.544h-18.861c0.05 0 0-3.772 0-3.772h18.861v3.772zm-9.43 98.076c-2.082 0-3.772-1.688-3.772-3.772 0-2.083 1.69-3.772 3.772-3.772 2.084 0 3.772 1.689 3.772 3.772 0 2.084-1.689 3.772-3.772 3.772z"/>
  <path d="m67.456 58.025h-7.544v15.089h7.544v-15.089z"/>
  <path d="m67.456 35.392v-7.544c0-3.772-3.772-7.544-7.544-7.544h-49.039c-3.772 0-7.544 3.772-7.544 7.544v94.304c0 3.772 3.772 7.544 7.544 7.544h49.038c3.772 0 7.544-3.772 7.544-7.544v-15.089c-3.133-1.26-5.522-1.972-7.544-3.772v11.316h-49.038v-82.987h49.038v7.607c2.278-1.436 4.825-3.13 7.545-3.835zm-32.064 82.988c2.084 0 3.772 1.689 3.772 3.772 0 2.084-1.689 3.772-3.772 3.772-2.082 0-3.772-1.688-3.772-3.772 0-2.083 1.69-3.772 3.772-3.772zm9.431-90.532h-18.861v-3.772h18.861v3.772z"/>
 </g>
 <path d="m90.089 54.253l7.544-7.544v22.633h-22.633l7.544-7.544s-6.682-11.316-15.089-11.316-15.089 3.772-15.089 3.772 9.43-11.316 18.861-11.316 15.089 5.657 18.862 11.315z" fill="#0091D2"/>
 <path d="m59.911 91.975l-7.544 7.544v-22.633h22.633l-7.544 7.544s6.682 11.316 15.089 11.316 15.089-3.772 15.089-3.772-9.43 11.316-18.861 11.316-15.089-5.657-18.862-11.315z" fill="#0091D2"/>
</svg>
